<svg width="21" height="22" viewBox="0 0 21 22" fill="none" xmlns="http://www.w3.org/2000/svg">
<g clip-path="url(#clip0_2_14)">
<path d="M10.1204 10.5975C11.4792 10.5975 12.6557 10.0753 13.6173 9.04508C14.5785 8.015 15.066 6.75464 15.066 5.29858C15.066 3.84301 14.5787 2.58249 13.6171 1.55208C12.6556 0.52217 11.4791 0 10.1204 0C8.76138 0 7.58504 0.52217 6.62364 1.55224C5.66224 2.58232 5.17472 3.84284 5.17472 5.29858C5.17472 6.75464 5.66224 8.01517 6.62364 9.04524C7.58536 10.0751 8.76185 10.5975 10.1204 10.5975ZM7.4746 2.46382C8.2123 1.67343 9.07767 1.28923 10.1204 1.28923C11.1629 1.28923 12.0285 1.67343 12.7663 2.46382C13.504 3.25437 13.8628 4.18173 13.8628 5.29858C13.8628 6.41576 13.504 7.34295 12.7663 8.1335C12.0285 8.92406 11.1629 9.30826 10.1204 9.30826C9.07798 9.30826 8.21261 8.92389 7.4746 8.1335C6.73675 7.34311 6.378 6.41576 6.378 5.29858C6.378 4.18173 6.73675 3.25437 7.4746 2.46382Z" fill="#FF7070"/>
<path d="M18.774 16.917C18.7462 16.4883 18.6901 16.0207 18.6076 15.5269C18.5242 15.0294 18.4169 14.5591 18.2885 14.1292C18.1556 13.6849 17.9753 13.2462 17.7521 12.8257C17.5207 12.3893 17.2487 12.0093 16.9436 11.6966C16.6245 11.3695 16.2338 11.1065 15.782 10.9146C15.3317 10.7238 14.8328 10.6271 14.299 10.6271C14.0894 10.6271 13.8867 10.7193 13.4952 10.9924C13.2543 11.1607 12.9725 11.3554 12.6579 11.5708C12.3889 11.7544 12.0245 11.9264 11.5745 12.0822C11.1354 12.2344 10.6895 12.3116 10.2493 12.3116C9.80942 12.3116 9.36357 12.2344 8.92415 12.0822C8.47454 11.9266 8.11 11.7545 7.84149 11.5709C7.5299 11.3576 7.24792 11.1629 7.00338 10.9922C6.6122 10.7191 6.40949 10.6269 6.19988 10.6269C5.66599 10.6269 5.1672 10.7238 4.71712 10.9148C4.26564 11.1063 3.87478 11.3693 3.55535 11.6968C3.25019 12.0097 2.97823 12.3895 2.747 12.8257C2.52408 13.2462 2.34361 13.6848 2.21077 14.1294C2.08247 14.5593 1.97516 15.0294 1.89181 15.5269C1.8091 16.02 1.75317 16.4878 1.72544 16.9175C1.69819 17.3376 1.6844 17.7749 1.6844 18.2166C1.6844 19.365 2.02513 20.2947 2.69703 20.9804C3.36063 21.657 4.23854 22.0001 5.30647 22.0001H15.1934C16.261 22.0001 17.1389 21.657 17.8027 20.9804C18.4747 20.2952 18.8155 19.3652 18.8155 18.2165C18.8153 17.7732 18.8014 17.3359 18.774 16.917ZM16.973 20.0463C16.5345 20.4935 15.9524 20.7108 15.1932 20.7108H5.30647C4.54715 20.7108 3.96501 20.4935 3.52669 20.0465C3.09666 19.6079 2.88768 19.0092 2.88768 18.2166C2.88768 17.8044 2.90037 17.3974 2.92575 17.0066C2.9505 16.6233 3.0011 16.2021 3.07614 15.7547C3.15024 15.3127 3.24455 14.898 3.35671 14.5225C3.46434 14.1625 3.61112 13.806 3.79316 13.4625C3.96689 13.1352 4.16679 12.8544 4.38736 12.6282C4.59368 12.4165 4.85373 12.2433 5.16015 12.1134C5.44354 11.9932 5.76203 11.9274 6.10777 11.9175C6.14991 11.9415 6.22495 11.9873 6.34651 12.0723C6.59387 12.245 6.87899 12.442 7.19418 12.6577C7.54948 12.9004 8.00723 13.1196 8.55412 13.3088C9.11323 13.5025 9.68346 13.6009 10.2495 13.6009C10.8155 13.6009 11.3859 13.5025 11.9447 13.309C12.492 13.1195 12.9496 12.9004 13.3054 12.6574C13.6279 12.4365 13.9051 12.2452 14.1524 12.0723C14.274 11.9875 14.349 11.9415 14.3912 11.9175C14.7371 11.9274 15.0555 11.9932 15.3391 12.1134C15.6454 12.2433 15.9054 12.4167 16.1117 12.6282C16.3323 12.8543 16.5322 13.1351 16.7059 13.4627C16.8881 13.806 17.0351 14.1626 17.1425 14.5223C17.2549 14.8983 17.3493 15.3129 17.4233 15.7545C17.4981 16.2028 17.5489 16.6241 17.5736 17.0068V17.0071C17.5992 17.3964 17.612 17.8032 17.6122 18.2166C17.612 19.0094 17.403 19.6079 16.973 20.0463Z" fill="#FF7070"/>
</g>
<defs>
<clipPath id="clip0_2_14">
<rect width="20.214" height="21.6578" fill="white" transform="scale(1.0158)"/>
</clipPath>
</defs>
</svg>
