<svg width="24" height="24" viewBox="0 0 24 24" fill="none" xmlns="http://www.w3.org/2000/svg">
<path d="M11.4694 6.96932L3.96944 14.4693C3.89976 14.539 3.84449 14.6217 3.80678 14.7128C3.76906 14.8038 3.74965 14.9014 3.74965 14.9999C3.74965 15.0985 3.76906 15.1961 3.80678 15.2871C3.84449 15.3782 3.89976 15.4609 3.96944 15.5306C4.03913 15.6003 4.12185 15.6555 4.2129 15.6932C4.30394 15.731 4.40152 15.7504 4.50007 15.7504C4.59862 15.7504 4.6962 15.731 4.78724 15.6932C4.87829 15.6555 4.96101 15.6003 5.0307 15.5306L12.0001 8.56026L18.9694 15.5306C19.1102 15.6713 19.301 15.7504 19.5001 15.7504C19.6991 15.7504 19.89 15.6713 20.0307 15.5306C20.1714 15.3898 20.2505 15.199 20.2505 14.9999C20.2505 14.8009 20.1714 14.6101 20.0307 14.4693L12.5307 6.96932C12.461 6.89959 12.3783 6.84427 12.2873 6.80653C12.1962 6.76879 12.0986 6.74936 12.0001 6.74936C11.9015 6.74936 11.8039 6.76879 11.7129 6.80653C11.6218 6.84427 11.5391 6.89959 11.4694 6.96932Z" fill="#0F4D73"/>
</svg>
