<svg width="23" height="23" viewBox="0 0 23 23" fill="none" xmlns="http://www.w3.org/2000/svg">
<g clip-path="url(#clip0_2_18)">
<path d="M20.9785 3.62107H2.02148C0.906838 3.62107 0 4.52791 0 5.64256V17.3574C0 18.472 0.906838 19.3789 2.02148 19.3789H20.9785C22.0932 19.3789 23 18.472 23 17.3574V5.64256C23 4.52791 22.0932 3.62107 20.9785 3.62107ZM20.7147 4.96873L20.4449 5.19339L12.302 11.9739C11.8373 12.3609 11.1626 12.3609 10.698 11.9739L2.55511 5.19339L2.28531 4.96873H20.7147ZM1.34766 5.94165L7.98226 11.4663L1.34766 15.8818V5.94165ZM20.9785 18.0312H2.02148C1.69589 18.0312 1.42357 17.7991 1.36118 17.4917L9.06281 12.366L9.83565 13.0096C10.3178 13.4111 10.909 13.6118 11.5 13.6118C12.0911 13.6118 12.6822 13.4111 13.1644 13.0096L13.9373 12.366L21.6389 17.4916C21.5764 17.7991 21.3041 18.0312 20.9785 18.0312ZM21.6523 15.8818L15.0177 11.4663L21.6523 5.94165V15.8818Z" fill="#FF7070"/>
</g>
<defs>
<clipPath id="clip0_2_18">
<rect width="22.3674" height="22.3674" fill="white" transform="scale(1.02828)"/>
</clipPath>
</defs>
</svg>
