<svg width="24" height="24" viewBox="0 0 24 24" fill="none" xmlns="http://www.w3.org/2000/svg">
<path d="M11.4694 17.0307L3.96944 9.53068C3.89976 9.46099 3.84449 9.37827 3.80678 9.28722C3.76906 9.19618 3.74965 9.0986 3.74965 9.00005C3.74965 8.9015 3.76906 8.80392 3.80678 8.71288C3.84449 8.62183 3.89976 8.53911 3.96944 8.46942C4.03913 8.39974 4.12185 8.34447 4.2129 8.30675C4.30394 8.26904 4.40152 8.24963 4.50007 8.24963C4.59862 8.24963 4.6962 8.26904 4.78724 8.30675C4.87829 8.34447 4.96101 8.39974 5.0307 8.46942L12.0001 15.4397L18.9694 8.46943C19.1102 8.32869 19.301 8.24963 19.5001 8.24963C19.6991 8.24963 19.89 8.32869 20.0307 8.46943C20.1714 8.61016 20.2505 8.80103 20.2505 9.00005C20.2505 9.19907 20.1714 9.38995 20.0307 9.53068L12.5307 17.0307C12.461 17.1004 12.3783 17.1557 12.2873 17.1935C12.1962 17.2312 12.0986 17.2506 12.0001 17.2506C11.9015 17.2506 11.8039 17.2312 11.7129 17.1935C11.6218 17.1557 11.5391 17.1004 11.4694 17.0307Z" fill="#0F4D73"/>
</svg>
